<svg width="71" height="70" viewBox="0 0 71 70" fill="none" xmlns="http://www.w3.org/2000/svg">
    <path fill-rule="evenodd" clip-rule="evenodd" d="M0.63158 52.6749L57.1678 4.98894C58.0117 4.14968 59.3757 4.14968 60.2174 4.98894L69.3644 14.0879C70.2105 14.925 70.2105 16.2831 69.3644 17.1224L12.8259 64.8105C11.9842 65.6475 10.62 65.6475 9.77632 64.8105L0.629332 55.7071C-0.21007 54.87 -0.21007 53.5119 0.63158 52.6749Z" fill="#C0A04C"/>
    <path fill-rule="evenodd" clip-rule="evenodd" d="M31.3537 38.3331L29.6879 39.7368L35.14 45.989L36.8038 44.585L31.3537 38.3331Z" fill="#937B3B"/>
    <path fill-rule="evenodd" clip-rule="evenodd" d="M39.2106 37.4044L37.5448 38.8084L40.1332 41.7753L41.7968 40.3736L39.2106 37.4044Z" fill="#937B3B"/>
    <path fill-rule="evenodd" clip-rule="evenodd" d="M21.3608 46.754L19.6948 48.1603L25.1494 54.4144L26.8152 53.0127L21.3608 46.754Z" fill="#937B3B"/>
    <path fill-rule="evenodd" clip-rule="evenodd" d="M68.2232 12.9545L67.5192 13.5474L69.8715 16.244C70.1033 15.5071 69.9524 14.6743 69.3644 14.0902L68.2232 12.9545Z" fill="#937B3B"/>
    <path fill-rule="evenodd" clip-rule="evenodd" d="M29.2177 45.8256L27.5541 47.2293L30.1445 50.2049L31.8084 48.7989L29.2177 45.8256Z" fill="#937B3B"/>
    <path fill-rule="evenodd" clip-rule="evenodd" d="M61.3301 13.0743L59.6643 14.476L65.1034 20.715L66.7672 19.3132L61.3301 13.0743Z" fill="#937B3B"/>
    <path fill-rule="evenodd" clip-rule="evenodd" d="M41.3444 29.9119L39.6808 31.3159L45.1287 37.5658L46.7922 36.1596L41.3444 29.9119Z" fill="#937B3B"/>
    <path fill-rule="evenodd" clip-rule="evenodd" d="M59.1944 20.5646L57.5286 21.9683L60.1082 24.9287L61.7763 23.5228L59.1944 20.5646Z" fill="#937B3B"/>
    <path fill-rule="evenodd" clip-rule="evenodd" d="M49.2035 28.9855L47.5354 30.3872L50.1196 33.3541L51.7854 31.9501L49.2035 28.9855Z" fill="#937B3B"/>
    <path fill-rule="evenodd" clip-rule="evenodd" d="M51.335 21.4952L49.6736 22.897L55.115 29.1404L56.7808 27.7364L51.335 21.4952Z" fill="#937B3B"/>
    <path fill-rule="evenodd" clip-rule="evenodd" d="M67.7924 0.0209351H2.20566C0.999023 0.0209351 0.0194702 0.995455 0.0194702 2.2009V15.2804C0.0194702 16.4836 0.998773 17.4604 2.20566 17.4604H67.7924C69.0013 17.4604 69.9786 16.4839 69.9786 15.2804V2.2009C69.9786 0.995205 68.9991 0.0209351 67.7924 0.0209351ZM67.7924 52.3391H2.20566C0.999023 52.3391 0.0194702 53.3136 0.0194702 54.5168V67.5986C0.0194702 68.8018 0.998773 69.7785 2.20566 69.7785H67.7924C69.0013 69.7785 69.9786 68.802 69.9786 67.5986V54.5168C69.9786 53.3136 68.9991 52.3391 67.7924 52.3391Z" fill="#EFC75E"/>
    <path fill-rule="evenodd" clip-rule="evenodd" d="M4.3916 8.74054H6.57779V0.0209351H4.3916V8.74054ZM10.9502 4.38061H13.1364V0.0209351H10.9502V4.38061ZM17.5085 8.74054H19.6947V0.0209351H17.5085V8.74054ZM24.0671 4.38061H26.2533V0.0209351H24.0671V4.38061ZM30.6257 8.74054H32.8119V0.0209351H30.6257V8.74054ZM37.184 4.38061H39.3702V0.0209351H37.184V4.38061ZM43.7426 8.74054H45.9288V0.0209351H43.7426V8.74054ZM50.3009 4.38061H52.4871V0.0209351H50.3009V4.38061ZM56.8595 8.74054H59.0457V0.0209351H56.8595V8.74054ZM63.4201 0.0209351V4.38086H65.6063V0.0209351H63.4201ZM4.3916 69.7785H6.57779V61.0589H4.3916V69.7785ZM10.9502 69.7786H13.1364V65.4186H10.9502V69.7786ZM17.5085 69.7785H19.6947V61.0589H17.5085V69.7785ZM24.0671 69.7786H26.2533V65.4186H24.0671V69.7786ZM30.6257 69.7785H32.8119V61.0589H30.6257V69.7785ZM37.184 69.7786H39.3702V65.4186H37.184V69.7786ZM43.7426 69.7785H45.9288V61.0589H43.7426V69.7785ZM50.3009 69.7786H52.4871V65.4186H50.3009V69.7786ZM56.8595 69.7785H59.0457V61.0589H56.8595V69.7785ZM63.4201 69.7786H65.6063V65.4186H63.4201V69.7786Z" fill="#B39546"/>
</svg>